<svg xmlns="http://www.w3.org/2000/svg" xmlns:xlink="http://www.w3.org/1999/xlink" width="1080" zoomAndPan="magnify" viewBox="0 0 810 1012.49997" height="1350" preserveAspectRatio="xMidYMid meet" version="1.0"><defs><clipPath id="967f8bd5ff"><path d="M 15.910156 141.3125 L 794.089844 141.3125 L 794.089844 919.488281 L 15.910156 919.488281 Z M 15.910156 141.3125 " clip-rule="nonzero"/></clipPath><clipPath id="11c32e9dd2"><path d="M 405 141.3125 C 190.113281 141.3125 15.910156 315.511719 15.910156 530.398438 C 15.910156 745.289062 190.113281 919.488281 405 919.488281 C 619.886719 919.488281 794.089844 745.289062 794.089844 530.398438 C 794.089844 315.511719 619.886719 141.3125 405 141.3125 Z M 405 141.3125 " clip-rule="nonzero"/></clipPath><clipPath id="11d5294641"><path d="M 0.910156 0.3125 L 779.089844 0.3125 L 779.089844 778.488281 L 0.910156 778.488281 Z M 0.910156 0.3125 " clip-rule="nonzero"/></clipPath><clipPath id="2d736a46af"><path d="M 390 0.3125 C 175.113281 0.3125 0.910156 174.511719 0.910156 389.398438 C 0.910156 604.289062 175.113281 778.488281 390 778.488281 C 604.886719 778.488281 779.089844 604.289062 779.089844 389.398438 C 779.089844 174.511719 604.886719 0.3125 390 0.3125 Z M 390 0.3125 " clip-rule="nonzero"/></clipPath><clipPath id="fac21c7ad7"><rect x="0" width="780" y="0" height="779"/></clipPath><clipPath id="07e47f9b84"><path d="M 652.582031 214 L 752.167969 214 L 752.167969 423.363281 L 652.582031 423.363281 Z M 652.582031 214 " clip-rule="nonzero"/></clipPath><clipPath id="34fdad8e4b"><path d="M 0.796875 1 L 655 1 L 655 654.976562 L 0.796875 654.976562 Z M 0.796875 1 " clip-rule="nonzero"/></clipPath><clipPath id="7ce031fd46"><path d="M -5.796875 331.394531 L 324.28125 1.316406 L 654.359375 331.394531 L 324.28125 661.472656 Z M -5.796875 331.394531 " clip-rule="nonzero"/></clipPath><clipPath id="f94cced95f"><path d="M 51 205 L 607 205 L 607 438 L 51 438 Z M 51 205 " clip-rule="nonzero"/></clipPath><clipPath id="4f1cc391f1"><path d="M -5.796875 330.394531 L 324.28125 0.316406 L 654.359375 330.394531 L 324.28125 660.472656 Z M -5.796875 330.394531 " clip-rule="nonzero"/></clipPath><clipPath id="392fa248fe"><path d="M 323.386719 1.210938 L -6.691406 331.289062 L 323.386719 661.367188 L 653.464844 331.289062 Z M 323.386719 1.210938 " clip-rule="nonzero"/></clipPath><clipPath id="2a06668272"><rect x="0" width="655" y="0" height="654"/></clipPath><clipPath id="45c4d9570a"><rect x="0" width="757" y="0" height="655"/></clipPath></defs><g clip-path="url(#967f8bd5ff)"><g clip-path="url(#11c32e9dd2)"><g transform="matrix(1, 0, 0, 1, 15, 141)"><g clip-path="url(#fac21c7ad7)"><g clip-path="url(#11d5294641)"><g clip-path="url(#2d736a46af)"><path fill="#ff3e19" d="M 0.910156 0.3125 L 779.089844 0.3125 L 779.089844 778.488281 L 0.910156 778.488281 Z M 0.910156 0.3125 " fill-opacity="1" fill-rule="nonzero"/></g></g></g></g></g></g><g transform="matrix(1, 0, 0, 1, 3, 199)"><g clip-path="url(#45c4d9570a)"><g clip-path="url(#07e47f9b84)"><path fill="#0f1020" d="M 729.15625 292.648438 C 739.839844 284.191406 746.074219 271.726562 746.074219 257.925781 C 746.074219 233.882812 726.484375 214.296875 702.890625 214.296875 C 679.292969 214.296875 659.261719 233.882812 659.261719 257.925781 C 659.261719 271.28125 665.492188 283.746094 676.179688 292.648438 L 653.027344 418.191406 C 652.582031 419.527344 653.027344 420.863281 653.917969 421.753906 C 654.808594 422.644531 656.144531 423.535156 657.480469 423.535156 L 747.855469 423.535156 C 749.191406 423.535156 750.523438 423.089844 751.414062 421.753906 C 752.304688 420.417969 752.75 419.527344 752.304688 418.191406 Z M 729.15625 292.648438 " fill-opacity="1" fill-rule="nonzero"/></g><g clip-path="url(#34fdad8e4b)"><g clip-path="url(#7ce031fd46)"><g transform="matrix(1, 0, 0, 1, -0.000000000000000444, 1)"><g clip-path="url(#2a06668272)"><g clip-path="url(#f94cced95f)"><g clip-path="url(#4f1cc391f1)"><g clip-path="url(#392fa248fe)"><path fill="#0f1020" d="M 85.394531 239.316406 C 105.847656 218.972656 133.859375 206.070312 164.886719 205.414062 C 216.558594 204.3125 261.179688 237.175781 277.226562 283.617188 L 485.65625 279.292969 L 552.988281 277.890625 L 594.253906 277.070312 C 595.636719 277.042969 597.054688 277.152344 598.34375 277.65625 C 599.632812 278.160156 600.734375 278.921875 601.734375 279.878906 C 602.730469 280.835938 603.632812 282 604.1875 283.269531 C 604.746094 284.535156 604.976562 285.976562 605.007812 287.359375 L 606.175781 337.625 C 606.207031 339.011719 605.859375 340.425781 605.359375 341.71875 C 604.855469 343.007812 604.210938 344.222656 603.253906 345.222656 C 602.3125 346.242188 601.015625 347.003906 599.746094 347.5625 C 598.480469 348.121094 597.15625 348.46875 595.773438 348.496094 L 565.027344 349.082031 L 566.429688 411.972656 C 566.460938 413.359375 566.117188 414.773438 565.613281 416.0625 C 565.109375 417.355469 564.351562 418.453125 563.390625 419.453125 C 562.449219 420.472656 561.269531 421.351562 560.003906 421.910156 C 558.734375 422.464844 557.414062 422.816406 556.027344 422.84375 L 488.578125 424.128906 C 487.191406 424.160156 485.777344 424.046875 484.484375 423.546875 C 483.195312 423.042969 481.976562 422.167969 480.980469 421.207031 C 479.980469 420.25 479.195312 419.203125 478.640625 417.933594 C 478.085938 416.664062 477.851562 415.226562 477.820312 413.84375 L 476.417969 350.953125 L 278.628906 355.160156 C 264.527344 402.183594 221.351562 436.820312 169.679688 437.921875 C 105.613281 439.273438 52.476562 388.125 51.144531 324.066406 C 50.457031 291.035156 63.625 260.96875 85.394531 239.3125 Z M 134.261719 288.410156 C 125.511719 297.101562 120.324219 309.285156 120.582031 322.664062 C 121.152344 348.65625 142.308594 369.007812 168.277344 368.488281 C 194.222656 367.964844 214.613281 346.527344 214.101562 320.558594 C 213.589844 294.625 192.246094 274.347656 166.289062 274.851562 C 153.730469 275.144531 142.476562 280.253906 134.261719 288.410156 Z M 134.261719 288.410156 " fill-opacity="1" fill-rule="evenodd"/></g></g></g></g></g></g></g></g></g></svg>