<svg width="37" height="37" viewBox="0 0 37 37" fill="none" xmlns="http://www.w3.org/2000/svg">
<path d="M16.5 18.7L14.85 17.05C14.5139 16.7139 14.0861 16.5458 13.5667 16.5458C13.0472 16.5458 12.6194 16.7139 12.2833 17.05C11.9472 17.3861 11.7792 17.8139 11.7792 18.3333C11.7792 18.8528 11.9472 19.2806 12.2833 19.6167L17.05 24.3833C17.4167 24.75 17.8444 24.9333 18.3333 24.9333C18.8222 24.9333 19.25 24.75 19.6167 24.3833L24.3833 19.6167C24.7194 19.2806 24.8875 18.8528 24.8875 18.3333C24.8875 17.8139 24.7194 17.3861 24.3833 17.05C24.0472 16.7139 23.6194 16.5458 23.1 16.5458C22.5806 16.5458 22.1528 16.7139 21.8167 17.05L20.1667 18.7V12.8333C20.1667 12.3139 19.991 11.8785 19.6396 11.5271C19.2882 11.1757 18.8528 11 18.3333 11C17.8139 11 17.3785 11.1757 17.0271 11.5271C16.6757 11.8785 16.5 12.3139 16.5 12.8333V18.7ZM18.3333 36.6667C15.7972 36.6667 13.4139 36.1854 11.1833 35.2229C8.95278 34.2604 7.0125 32.9542 5.3625 31.3042C3.7125 29.6542 2.40625 27.7139 1.44375 25.4833C0.48125 23.2528 0 20.8694 0 18.3333C0 15.7972 0.48125 13.4139 1.44375 11.1833C2.40625 8.95278 3.7125 7.0125 5.3625 5.3625C7.0125 3.7125 8.95278 2.40625 11.1833 1.44375C13.4139 0.48125 15.7972 0 18.3333 0C20.8694 0 23.2528 0.48125 25.4833 1.44375C27.7139 2.40625 29.6542 3.7125 31.3042 5.3625C32.9542 7.0125 34.2604 8.95278 35.2229 11.1833C36.1854 13.4139 36.6667 15.7972 36.6667 18.3333C36.6667 20.8694 36.1854 23.2528 35.2229 25.4833C34.2604 27.7139 32.9542 29.6542 31.3042 31.3042C29.6542 32.9542 27.7139 34.2604 25.4833 35.2229C23.2528 36.1854 20.8694 36.6667 18.3333 36.6667ZM18.3333 33C22.4278 33 25.8958 31.5792 28.7375 28.7375C31.5792 25.8958 33 22.4278 33 18.3333C33 14.2389 31.5792 10.7708 28.7375 7.92917C25.8958 5.0875 22.4278 3.66667 18.3333 3.66667C14.2389 3.66667 10.7708 5.0875 7.92917 7.92917C5.0875 10.7708 3.66667 14.2389 3.66667 18.3333C3.66667 22.4278 5.0875 25.8958 7.92917 28.7375C10.7708 31.5792 14.2389 33 18.3333 33Z" fill="white"/>
</svg>
