<svg width="52" height="53" viewBox="0 0 52 53" fill="none" xmlns="http://www.w3.org/2000/svg">
<circle cx="11.5" cy="21.5" r="5.5" fill="#F95738"/>
<circle cx="40.5" cy="21.5" r="5.5" fill="#F95738"/>
<rect x="9.39746" y="7.43091" width="3.78996" height="10.2026" rx="1.89498" transform="rotate(-45 9.39746 7.43091)" fill="#BD3920"/>
<rect x="24" width="3.78996" height="10.2026" rx="1.89498" fill="#BD3920"/>
<rect x="39.58" y="5.07117" width="3.78996" height="10.2026" rx="1.89498" transform="rotate(45 39.58 5.07117)" fill="#BD3920"/>
<path d="M9.64844 52C9.64844 52.1731 9.58126 52.3458 9.44531 52.4736C9.1837 52.7192 8.77209 52.7067 8.52637 52.4453C8.40098 52.3117 8.28629 52.1614 8.17676 52H9.64844ZM11 28C17.0751 28 22 32.9249 22 39V49C22 50.6569 20.6569 52 19 52H9.64844C9.64843 51.8403 9.59146 51.6802 9.47363 51.5547C9.09679 51.153 8.75505 50.4233 8.47559 49.4062C8.20135 48.4082 8.00713 47.212 7.87695 45.9531C7.61671 43.4363 7.61704 40.7397 7.69727 39.0303C7.71398 38.6718 7.43665 38.3674 7.07812 38.3506C6.71955 38.3338 6.41527 38.6112 6.39844 38.9697C6.31598 40.727 6.3155 43.4905 6.58398 46.0869C6.71818 47.3846 6.92143 48.6583 7.22168 49.751C7.4549 50.5998 7.76287 51.3901 8.17676 52H4C1.79086 52 6.44266e-08 50.2091 0 48V39C0 32.9249 4.92487 28 11 28Z" fill="#F95738"/>
<path d="M20.5 22.7046C18.5 27.1046 14.1667 28.5 12.5 28.5C14.5 28.5 18.1667 30.8713 19.5 32.2046C19.5 31.4046 20.1667 31.5379 20.5 31.7046L21.5 33.7046L25.5 27.2046C26 26.5379 26.5 24.6046 24.5 22.2046C22.5 19.8046 21 21.5379 20.5 22.7046Z" fill="#F95738"/>
<path d="M42.2988 52C42.2988 52.1731 42.366 52.3458 42.502 52.4736C42.7636 52.7192 43.1752 52.7067 43.4209 52.4453C43.5463 52.3117 43.661 52.1614 43.7705 52H42.2988ZM40.9473 28C34.8721 28 29.9473 32.9249 29.9473 39V49C29.9473 50.6569 31.2904 52 32.9473 52H42.2988C42.2988 51.8403 42.3558 51.6802 42.4736 51.5547C42.8505 51.153 43.1922 50.4233 43.4717 49.4062C43.7459 48.4082 43.9401 47.212 44.0703 45.9531C44.3306 43.4363 44.3302 40.7397 44.25 39.0303C44.2333 38.6718 44.5106 38.3674 44.8691 38.3506C45.2277 38.3338 45.532 38.6112 45.5488 38.9697C45.6313 40.727 45.6318 43.4905 45.3633 46.0869C45.2291 47.3846 45.0258 48.6583 44.7256 49.751C44.4924 50.5998 44.1844 51.3901 43.7705 52H47.9473C50.1564 52 51.9473 50.2091 51.9473 48V39C51.9473 32.9249 47.0224 28 40.9473 28Z" fill="#F95738"/>
<path d="M31.4473 22.7046C33.4473 27.1046 37.7806 28.5 39.4473 28.5C37.4473 28.5 33.7806 30.8713 32.4473 32.2046C32.4473 31.4046 31.7806 31.5379 31.4473 31.7046L30.4473 33.7046L26.4473 27.2046C25.9473 26.5379 25.4473 24.6046 27.4473 22.2046C29.4473 19.8046 30.9473 21.5379 31.4473 22.7046Z" fill="#F95738"/>
</svg>
