<svg width="49" height="49" viewBox="0 0 49 49" fill="none" xmlns="http://www.w3.org/2000/svg">
<path d="M37.2915 11.0001L46.7915 1.50008" stroke="#BD3920" stroke-width="3" stroke-linecap="round"/>
<path d="M39.7915 20.5001C41.1248 20.3334 44.4915 21.0001 47.2915 25.0001" stroke="#BD3920" stroke-width="3" stroke-linecap="round"/>
<path d="M6.79152 24.0001L9.29152 17.5001C12.7915 25.0001 29.7915 38.5001 30.2915 39.0001C30.6915 39.4001 26.2915 42.0001 24.2915 42.0001C15.2915 41.5001 6.29156 28.0001 6.79152 24.0001Z" fill="#F95738"/>
<path d="M0.791504 47.5001C-1.7085 44.5001 2.29168 35.8334 4.79168 30.5001C5.19171 34.1001 13.4584 41.3334 17.7917 44.5001C6.19168 50.9001 2.29151 48.5001 0.791504 47.5001Z" fill="#F95738"/>
<ellipse cx="25.7603" cy="22.4689" rx="6.93735" ry="18.4743" transform="rotate(-45 25.7603 22.4689)" fill="#F95738"/>
<path d="M25.7915 1.50008C27.2915 2.66674 29.9915 6.00008 28.7915 10.0001" stroke="#BD3920" stroke-width="3" stroke-linecap="round"/>
</svg>
