<svg width="53" height="47" viewBox="0 0 53 47" fill="none" xmlns="http://www.w3.org/2000/svg">
<circle cx="29.4108" cy="20.0528" r="4.67897" fill="#F95738"/>
<circle cx="14.037" cy="4.67897" r="4.67897" fill="#F95738"/>
<path d="M26.0742 6.01583C27.1786 6.01603 28.0742 6.91138 28.0742 8.01583V32.09C28.074 33.1943 27.1785 34.0898 26.0742 34.09H18.4072C18.6059 33.5709 18.7158 33.0072 18.7158 32.4182C18.7156 29.8343 16.621 27.7395 14.0371 27.7395C11.4531 27.7395 9.35864 29.8343 9.3584 32.4182C9.3584 33.0071 9.46739 33.5709 9.66602 34.09H2C0.895554 34.09 0.000199966 33.1944 0 32.09V24.0881C0.519117 24.2867 1.08194 24.3976 1.6709 24.3977C4.25489 24.3977 6.34938 22.3029 6.34961 19.719C6.34961 17.1348 4.25502 15.0393 1.6709 15.0393C1.08208 15.0393 0.519013 15.1493 0 15.3479V8.01583C0 6.91126 0.895431 6.01583 2 6.01583H26.0742Z" fill="#F95738"/>
<path d="M24.9434 37.5544L25.1639 37.3339C25.2082 37.2896 25.2331 37.2295 25.2331 37.1668C25.2331 37.0363 25.3389 36.9305 25.4694 36.9305H28.9147C30.0193 36.9305 30.9147 36.0351 30.9147 34.9305V28.9075C30.9147 28.0993 31.4138 27.3797 32.1311 27.0074C40.252 22.7928 37.0971 14.614 32.7163 12.521C31.7634 12.0657 30.9147 11.2089 30.9147 10.1528V10.1185C30.9147 9.53015 31.1737 8.97169 31.6228 8.59168L31.6522 8.5668C32.4587 7.88442 33.6568 7.94691 34.3878 8.7095L51.1337 26.1772C51.8798 26.9554 51.8748 28.1849 51.1225 28.957L39.7713 40.6068L34.4723 45.5085C33.6946 46.2278 32.4908 46.216 31.7274 45.4814L24.957 38.9664C24.558 38.5825 24.5519 37.9459 24.9434 37.5544Z" fill="#BD3920" stroke="#BD3920"/>
<circle cx="43.7819" cy="16.0422" r="4.67897" fill="#BD3920"/>
<circle cx="43.7819" cy="38.1002" r="4.67897" fill="#BD3920"/>
</svg>
